<svg width="15" height="13" viewBox="0 0 15 13" fill="none" xmlns="http://www.w3.org/2000/svg">
<path d="M11.7803 3.71967C12.0732 4.01256 12.0732 4.48744 11.7803 4.78033L10.0606 6.5L11.7803 8.21967C12.0732 8.51256 12.0732 8.98744 11.7803 9.28033C11.4874 9.57322 11.0125 9.57322 10.7197 9.28033L8.99998 7.56066L7.28031 9.28033C6.98742 9.57322 6.51255 9.57322 6.21966 9.28033C5.92676 8.98744 5.92676 8.51256 6.21966 8.21967L7.93932 6.5L6.21966 4.78033C5.92676 4.48744 5.92676 4.01256 6.21966 3.71967C6.51255 3.42678 6.98742 3.42678 7.28031 3.71967L8.99998 5.43934L10.7197 3.71967C11.0125 3.42678 11.4874 3.42678 11.7803 3.71967Z" fill="#212121"/>
<path fill-rule="evenodd" clip-rule="evenodd" d="M15 1.25C15 0.835786 14.6642 0.5 14.25 0.5H5.59494C5.15705 0.5 4.74102 0.691344 4.45605 1.02381L0.598908 5.52381C0.117421 6.08555 0.117421 6.91445 0.598908 7.47619L4.45605 11.9762C4.74102 12.3087 5.15705 12.5 5.59494 12.5H14.25C14.6642 12.5 15 12.1642 15 11.75V1.25ZM13.5 11H5.59494L1.73779 6.5L5.59494 2H13.5V11Z" fill="#212121"/>
</svg>
