<svg width="21" height="26" viewBox="0 0 21 26" fill="none" xmlns="http://www.w3.org/2000/svg">
<path d="M0 4.66102C0 3.19006 1.17525 1.9976 2.625 1.9976H7.875H14.4375H18.375C19.8247 1.9976 21 3.19006 21 4.66102V20.6415C21 22.1125 19.8247 23.3049 18.375 23.3049H2.625C1.17525 23.3049 0 22.1125 0 20.6415V4.66102Z" fill="white"/>
<path d="M2.625 21.9398C2.625 21.2044 3.21263 20.6081 3.9375 20.6081H5.25C5.97487 20.6081 6.5625 21.2044 6.5625 21.9398V24.6033C6.5625 25.3387 5.97487 25.935 5.25 25.935H3.9375C3.21263 25.935 2.625 25.3387 2.625 24.6033V21.9398Z" fill="white"/>
<path d="M14.4375 21.9398C14.4375 21.2044 15.0251 20.6081 15.75 20.6081H17.0625C17.7874 20.6081 18.375 21.2044 18.375 21.9398V24.6033C18.375 25.3387 17.7874 25.935 17.0625 25.935H15.75C15.0251 25.935 14.4375 25.3387 14.4375 24.6033V21.9398Z" fill="white"/>
<path d="M6.5625 18.644C6.5625 19.7472 5.68106 20.6415 4.59375 20.6415C3.50644 20.6415 2.625 19.7472 2.625 18.644C2.625 17.5407 3.50644 16.6464 4.59375 16.6464C5.68106 16.6464 6.5625 17.5407 6.5625 18.644Z" fill="#FFC3AE"/>
<path d="M18.375 18.644C18.375 19.7472 17.4936 20.6415 16.4062 20.6415C15.3189 20.6415 14.4375 19.7472 14.4375 18.644C14.4375 17.5407 15.3189 16.6464 16.4062 16.6464C17.4936 16.6464 18.375 17.5407 18.375 18.644Z" fill="#FFC3AE"/>
<path d="M21 4.66096C21 7.60289 16.299 9.98779 10.5 9.98779C4.70101 9.98779 0 7.60289 0 4.66096C0 1.71903 4.70101 0 10.5 0C16.299 0 21 1.71903 21 4.66096Z" fill="white"/>
<path d="M2.625 5.20003H18.375V13H2.625V5.20003Z" fill="#3546FF"/>
</svg>
