<svg width="20" height="15" viewBox="0 0 20 15" fill="none" xmlns="http://www.w3.org/2000/svg">
<path d="M7.9166 2.00016C6.48002 2.00016 5.10227 2.57085 4.08644 3.58667C3.07062 4.60249 2.49994 5.98024 2.49994 7.41683C2.49994 8.85342 3.07062 10.2312 4.08644 11.247C5.10227 12.2628 6.48002 12.8335 7.9166 12.8335H13.7499C14.2759 12.833 14.7959 12.7218 15.2761 12.5073C15.7564 12.2927 16.1861 11.9795 16.5374 11.588C16.8887 11.1965 17.1537 10.7355 17.3152 10.235C17.4767 9.7344 17.5311 9.20545 17.4748 8.68249C17.4186 8.15952 17.2529 7.65424 16.9887 7.19946C16.7244 6.74468 16.3675 6.35058 15.941 6.04276C15.5145 5.73493 15.028 5.52028 14.5131 5.41273C13.9982 5.30518 13.4665 5.30714 12.9524 5.4185C12.5519 4.40995 11.8577 3.54491 10.9598 2.93544C10.062 2.32596 9.00179 2.00014 7.9166 2.00016ZM13.7499 14.5002H7.9166C6.68347 14.4999 5.47177 14.1777 4.40136 13.5654C3.33096 12.9531 2.43894 12.072 1.81353 11.0093C1.18813 9.94648 0.851008 8.73884 0.83552 7.5058C0.820031 6.27276 1.12671 5.05703 1.72522 3.97888C2.32374 2.90073 3.19334 1.9975 4.24803 1.35855C5.30272 0.719591 6.50594 0.367043 7.73868 0.335774C8.97142 0.304506 10.191 0.5956 11.2767 1.18026C12.3624 1.76493 13.2767 2.62291 13.9291 3.66933C15.3522 3.71239 16.7011 4.314 17.684 5.34401C18.6669 6.37401 19.2047 7.74958 19.1812 9.17311C19.1576 10.5966 18.5746 11.9537 17.5582 12.9506C16.5417 13.9475 15.1737 14.5042 13.7499 14.5002Z" fill="white"/>
</svg>
