<svg width="18" height="18" viewBox="0 0 18 18" fill="none" xmlns="http://www.w3.org/2000/svg">
<path fill-rule="evenodd" clip-rule="evenodd" d="M9 2.25003C8.11358 2.25003 7.23583 2.42462 6.41689 2.76384C5.59794 3.10306 4.85382 3.60026 4.22703 4.22706C3.60023 4.85385 3.10303 5.59797 2.76381 6.41692C2.42459 7.23586 2.25 8.11361 2.25 9.00003C2.25 9.88645 2.42459 10.7642 2.76381 11.5831C3.10303 12.4021 3.60023 13.1462 4.22703 13.773C4.85382 14.3998 5.59794 14.897 6.41689 15.2362C7.23583 15.5754 8.11358 15.75 9 15.75C10.7902 15.75 12.5071 15.0389 13.773 13.773C15.0388 12.5071 15.75 10.7902 15.75 9.00003C15.75 7.20982 15.0388 5.49293 13.773 4.22706C12.5071 2.96119 10.7902 2.25003 9 2.25003ZM0.75 9.00003C0.75 4.44378 4.44375 0.750031 9 0.750031C13.5562 0.750031 17.25 4.44378 17.25 9.00003C17.25 13.5563 13.5562 17.25 9 17.25C4.44375 17.25 0.75 13.5563 0.75 9.00003ZM9.9375 5.43753C9.9375 5.68617 9.83873 5.92463 9.66291 6.10044C9.4871 6.27626 9.24864 6.37503 9 6.37503C8.75136 6.37503 8.5129 6.27626 8.33709 6.10044C8.16127 5.92463 8.0625 5.68617 8.0625 5.43753C8.0625 5.18889 8.16127 4.95043 8.33709 4.77462C8.5129 4.5988 8.75136 4.50003 9 4.50003C9.24864 4.50003 9.4871 4.5988 9.66291 4.77462C9.83873 4.95043 9.9375 5.18889 9.9375 5.43753ZM8.25 7.50003C8.05109 7.50003 7.86032 7.57905 7.71967 7.7197C7.57902 7.86035 7.5 8.05112 7.5 8.25003C7.5 8.44894 7.57902 8.63971 7.71967 8.78036C7.86032 8.92101 8.05109 9.00003 8.25 9.00003V12.75C8.25 12.9489 8.32902 13.1397 8.46967 13.2804C8.61032 13.421 8.80109 13.5 9 13.5C9.19891 13.5 9.38968 13.421 9.53033 13.2804C9.67098 13.1397 9.75 12.9489 9.75 12.75V8.25003C9.75 8.05112 9.67098 7.86035 9.53033 7.7197C9.38968 7.57905 9.19891 7.50003 9 7.50003H8.25Z" fill="#212121"/>
</svg>
