<svg width="20" height="18" viewBox="0 0 20 18" fill="none" xmlns="http://www.w3.org/2000/svg">
<path d="M10 17.25C9.40875 16.7257 8.7405 16.1802 8.03375 15.6H8.02458C5.53583 13.565 2.71525 11.2623 1.4695 8.50316C1.06022 7.62474 0.843329 6.66903 0.833323 5.69999C0.83059 4.37035 1.36387 3.09573 2.31266 2.1642C3.26144 1.23266 4.54564 0.722855 5.875 0.749993C6.95724 0.751702 8.01618 1.06448 8.92567 1.65108C9.32531 1.91046 9.68689 2.22423 10 2.58333C10.3149 2.22564 10.6765 1.91206 11.0753 1.65108C11.9843 1.06437 13.043 0.751568 14.125 0.749993C15.4544 0.722855 16.7386 1.23266 17.6873 2.1642C18.6361 3.09573 19.1694 4.37035 19.1667 5.69999C19.1573 6.67057 18.9404 7.62792 18.5305 8.50774C17.2847 11.2669 14.4651 13.5687 11.9763 15.6L11.9672 15.6073C11.2595 16.1839 10.5922 16.7293 10.0009 17.2573L10 17.25ZM5.875 2.58333C5.02114 2.57264 4.19757 2.89943 3.58333 3.49266C2.99152 4.07398 2.66076 4.87045 2.66659 5.69999C2.67705 6.40629 2.83701 7.10236 3.136 7.74233C3.72405 8.93281 4.51752 10.0102 5.47992 10.925C6.38833 11.8417 7.43333 12.729 8.33717 13.4752C8.58742 13.6814 8.84225 13.8895 9.09708 14.0976L9.2575 14.2287C9.50225 14.4285 9.75525 14.6357 10 14.8392L10.0119 14.8282L10.0174 14.8236H10.0229L10.0312 14.8172H10.0358H10.0403L10.0568 14.8034L10.0944 14.7732L10.1008 14.7677L10.1109 14.7603H10.1164L10.1247 14.753L10.7333 14.2534L10.8928 14.1223C11.1504 13.9124 11.4053 13.7043 11.6555 13.4981C12.5593 12.7519 13.6053 11.8655 14.5137 10.9442C15.4762 10.0299 16.2697 8.9528 16.8576 7.76249C17.162 7.11698 17.3242 6.41362 17.3334 5.69999C17.3372 4.87301 17.0066 4.07959 16.4167 3.49999C15.8036 2.90409 14.9799 2.5746 14.125 2.58333C13.0818 2.57446 12.0844 3.01175 11.3842 3.78508L10 5.38008L8.61583 3.78508C7.91556 3.01175 6.91824 2.57446 5.875 2.58333Z" fill="#FFC3AE"/>
</svg>
