<svg width="14" height="16" viewBox="0 0 14 16" fill="none" xmlns="http://www.w3.org/2000/svg">
<path d="M5.60961 1.43609C5.83248 0.887119 6.37103 0.5 7 0.5C7.62897 0.5 8.16752 0.887119 8.3904 1.43609C10.6151 2.04554 12.25 4.08185 12.25 6.5V10.0229L13.624 12.084C13.7775 12.3141 13.7918 12.61 13.6613 12.8539C13.5307 13.0978 13.2766 13.25 13 13.25H9.59842C9.41646 14.5221 8.32243 15.5 7 15.5C5.67757 15.5 4.58355 14.5221 4.40158 13.25H1C0.723405 13.25 0.469259 13.0978 0.338745 12.8539C0.208231 12.61 0.222535 12.3141 0.375963 12.084L1.75 10.0229V6.5C1.75 4.08185 3.38487 2.04554 5.60961 1.43609ZM5.93902 13.25C6.09345 13.6869 6.51017 14 7 14C7.48983 14 7.90655 13.6869 8.06099 13.25H5.93902ZM7 2.75C4.92893 2.75 3.25 4.42893 3.25 6.5V10.25C3.25 10.3981 3.20617 10.5428 3.12404 10.666L2.40139 11.75H11.5986L10.876 10.666C10.7938 10.5428 10.75 10.3981 10.75 10.25V6.5C10.75 4.42893 9.07107 2.75 7 2.75Z" fill="#212121"/>
</svg>
