<svg width="38" height="38" viewBox="0 0 38 38" fill="none" xmlns="http://www.w3.org/2000/svg">
<rect width="38" height="38" rx="14" fill="#3546FF"/>
<path d="M17.5 13C15.0147 13 13 15.0147 13 17.5C13 19.9853 15.0147 22 17.5 22C19.9853 22 22 19.9853 22 17.5C22 15.0147 19.9853 13 17.5 13ZM11.5 17.5C11.5 14.1863 14.1863 11.5 17.5 11.5C20.8137 11.5 23.5 14.1863 23.5 17.5C23.5 18.8865 23.0297 20.1632 22.2399 21.1792L26.2803 25.2197C26.5732 25.5126 26.5732 25.9874 26.2803 26.2803C25.9874 26.5732 25.5126 26.5732 25.2197 26.2803L21.1792 22.2399C20.1632 23.0297 18.8865 23.5 17.5 23.5C14.1863 23.5 11.5 20.8137 11.5 17.5Z" fill="#F8F8F8"/>
</svg>
