<svg width="12" height="20" viewBox="0 0 12 20" fill="none" xmlns="http://www.w3.org/2000/svg">
<path d="M2.6665 4.16683C2.6665 3.28277 3.01769 2.43493 3.64281 1.80981C4.26794 1.18469 5.11578 0.833496 5.99984 0.833496C6.88389 0.833496 7.73174 1.18469 8.35686 1.80981C8.98198 2.43493 9.33317 3.28277 9.33317 4.16683V8.546C10.3523 9.25564 11.1184 10.272 11.5199 11.4472C11.9214 12.6224 11.9374 13.8951 11.5655 15.08C11.1936 16.2649 10.4533 17.3001 9.45223 18.0351C8.4512 18.7701 7.24172 19.1665 5.99984 19.1665C4.75795 19.1665 3.54848 18.7701 2.54745 18.0351C1.54642 17.3001 0.806086 16.2649 0.434196 15.08C0.0623057 13.8951 0.0782728 12.6224 0.479773 11.4472C0.881273 10.272 1.64735 9.25564 2.6665 8.546V4.16683ZM3.61984 9.91266C2.89165 10.4194 2.34421 11.1453 2.05722 11.9848C1.77022 12.8243 1.75866 13.7334 2.02421 14.5799C2.28975 15.4264 2.81855 16.166 3.53361 16.6911C4.24868 17.2162 5.11268 17.4994 5.99984 17.4994C6.887 17.4994 7.751 17.2162 8.46606 16.6911C9.18113 16.166 9.70992 15.4264 9.97547 14.5799C10.241 13.7334 10.2295 12.8243 9.94246 11.9848C9.65547 11.1453 9.10803 10.4194 8.37984 9.91266L7.6665 9.41516V4.16683C7.6665 3.7248 7.49091 3.30088 7.17835 2.98832C6.86579 2.67576 6.44187 2.50016 5.99984 2.50016C5.55781 2.50016 5.13389 2.67576 4.82133 2.98832C4.50877 3.30088 4.33317 3.7248 4.33317 4.16683V9.41516L3.61984 9.91266ZM5.1665 10.1052V4.16683H6.83317V10.1052C7.61691 10.3099 8.29933 10.793 8.753 11.4641C9.20668 12.1351 9.40059 12.9484 9.29853 13.752C9.19648 14.5556 8.80543 15.2946 8.19841 15.831C7.59138 16.3674 6.80989 16.6645 5.99984 16.6668C5.18795 16.6676 4.40368 16.3721 3.79423 15.8357C3.18478 15.2993 2.79206 14.5589 2.68977 13.7535C2.58748 12.948 2.78266 12.133 3.23868 11.4613C3.69469 10.7895 4.38019 10.3073 5.1665 10.1052V10.1052ZM5.99984 15.0002C6.44187 15.0002 6.86579 14.8246 7.17835 14.512C7.49091 14.1994 7.6665 13.7755 7.6665 13.3335C7.6665 12.8915 7.49091 12.4675 7.17835 12.155C6.86579 11.8424 6.44187 11.6668 5.99984 11.6668C5.55781 11.6668 5.13389 11.8424 4.82133 12.155C4.50877 12.4675 4.33317 12.8915 4.33317 13.3335C4.33317 13.7755 4.50877 14.1994 4.82133 14.512C5.13389 14.8246 5.55781 15.0002 5.99984 15.0002Z" fill="white"/>
</svg>
