<svg width="18" height="18" viewBox="0 0 18 18" fill="none" xmlns="http://www.w3.org/2000/svg">
<path fill-rule="evenodd" clip-rule="evenodd" d="M6 14.25H12C12 15.0784 12.6716 15.75 13.5 15.75C14.3284 15.75 15 15.0784 15 14.25V3.75C15 2.92157 14.3284 2.25 13.5 2.25H4.5C3.67157 2.25 3 2.92157 3 3.75V14.25C3 15.0784 3.67157 15.75 4.5 15.75C5.32843 15.75 6 15.0784 6 14.25ZM13.5 10.5C13.5 10.9142 13.1642 11.25 12.75 11.25C12.3358 11.25 12 10.9142 12 10.5C12 10.0858 12.3358 9.75 12.75 9.75C13.1642 9.75 13.5 10.0858 13.5 10.5ZM5.25 11.25C5.66421 11.25 6 10.9142 6 10.5C6 10.0858 5.66421 9.75 5.25 9.75C4.83578 9.75 4.5 10.0858 4.5 10.5C4.5 10.9142 4.83578 11.25 5.25 11.25ZM13.5 3.75H4.5V8.25H13.5V3.75Z" fill="#FFFFFF"/>
</svg>
