<svg width="14" height="15" viewBox="0 0 14 15" fill="none" xmlns="http://www.w3.org/2000/svg">
<path d="M10 3.25C10.2967 3.25 10.5867 3.16203 10.8334 2.99721C11.0801 2.83238 11.2723 2.59812 11.3858 2.32403C11.4994 2.04994 11.5291 1.74834 11.4712 1.45737C11.4133 1.16639 11.2705 0.899119 11.0607 0.68934C10.8509 0.479562 10.5836 0.336701 10.2927 0.278823C10.0017 0.220945 9.70009 0.25065 9.426 0.364181C9.15191 0.477713 8.91764 0.669972 8.75282 0.916645C8.588 1.16332 8.50002 1.45333 8.50002 1.75C8.50002 2.14783 8.65806 2.52936 8.93937 2.81066C9.22067 3.09197 9.6022 3.25 10 3.25ZM7.52502 11.8C7.22441 12.1936 6.83103 12.5067 6.37998 12.7112C5.92893 12.9158 5.43425 13.0055 4.94009 12.9724C4.44593 12.9393 3.96765 12.7843 3.54796 12.5213C3.12827 12.2584 2.78021 11.8956 2.53484 11.4653C2.28948 11.0351 2.15445 10.5508 2.1418 10.0557C2.12916 9.56062 2.23928 9.07008 2.46236 8.62789C2.68544 8.1857 3.01452 7.80562 3.42024 7.52157C3.82596 7.23751 4.2957 7.05833 4.78753 7C4.98644 6.97812 5.16851 6.87812 5.29369 6.72199C5.41887 6.56587 5.4769 6.36641 5.45502 6.1675C5.43314 5.96859 5.33314 5.78652 5.17702 5.66133C5.0209 5.53615 4.82144 5.47812 4.62252 5.5C3.42905 5.56664 2.31093 6.10465 1.51413 6.99568C0.717339 7.88671 0.30714 9.05778 0.373775 10.2513C0.440411 11.4447 0.978423 12.5628 1.86946 13.3596C2.76049 14.1564 3.93155 14.5666 5.12502 14.5C5.82363 14.5 6.51264 14.3373 7.13749 14.0249C7.76234 13.7125 8.30586 13.2589 8.72503 12.7C8.84437 12.5409 8.89562 12.3408 8.86749 12.1439C8.83936 11.947 8.73415 11.7694 8.57503 11.65C8.4159 11.5307 8.21587 11.4794 8.01896 11.5075C7.82205 11.5357 7.64437 11.6409 7.52502 11.8ZM12.625 13H11.875V9.25C11.875 9.05109 11.796 8.86032 11.6554 8.71967C11.5147 8.57902 11.3239 8.5 11.125 8.5H7.69753L8.96502 5.005V4.7725C8.96871 4.72758 8.96871 4.68243 8.96502 4.6375C8.96929 4.5901 8.96929 4.54241 8.96502 4.495C8.94547 4.451 8.92292 4.4084 8.89752 4.3675C8.875 4.32659 8.84727 4.28878 8.81503 4.255C8.78282 4.21685 8.74487 4.18395 8.70253 4.1575C8.70253 4.1575 8.70252 4.1125 8.64252 4.0975L5.28252 2.1625H5.19252C5.14654 2.14306 5.09883 2.12799 5.05002 2.1175H4.75002C4.69792 2.12827 4.64748 2.14593 4.60003 2.17H4.51752L2.50003 3.3475C2.35664 3.42873 2.244 3.55492 2.17951 3.70658C2.11502 3.85824 2.10228 4.02691 2.14325 4.18653C2.18423 4.34615 2.27663 4.48784 2.40619 4.58969C2.53575 4.69153 2.69524 4.74787 2.86002 4.75C2.99648 4.7536 3.13132 4.71988 3.25003 4.6525L4.92252 3.6775L7.35253 5.0875L5.93502 8.995C5.93138 9.03492 5.93138 9.07508 5.93502 9.115C5.928 9.15973 5.928 9.20528 5.93502 9.25C5.94885 9.3462 5.96889 9.4414 5.99502 9.535L6.07753 9.6475C6.09796 9.69193 6.12586 9.73251 6.16002 9.7675C6.19208 9.79428 6.22736 9.81695 6.26503 9.835C6.30966 9.86932 6.35736 9.89945 6.40753 9.925C6.48927 9.95467 6.57556 9.9699 6.66253 9.97H10.4125V13.72C10.4125 13.9189 10.4915 14.1097 10.6322 14.2503C10.7728 14.391 10.9636 14.47 11.1625 14.47H12.6625C12.8614 14.47 13.0522 14.391 13.1929 14.2503C13.3335 14.1097 13.4125 13.9189 13.4125 13.72C13.4125 13.5211 13.3335 13.3303 13.1929 13.1897C13.0522 13.049 12.8614 12.97 12.6625 12.97L12.625 13Z" fill="#212121"/>
</svg>
